# xmcd
#
# Track frame offsets:
#	150
#	13569
#	24757
#	38287
#	48494
#	64626
#	75954
#	87556
#	99271
#	112121
#	126241
#	136634
#
# Disc length: 2019 seconds
#
# Revision: 0
# Processed by: cddbd v1.5.2PL0 Copyright (c) Steve Scherf et al.
# Submitted via: FairStars CD Ripper 2.00
#
DISCID=8207e10c
DTITLE=Gene Pitney - Twenty Four Hours From Tulsa
DYEAR=2006
DGENRE=Country
TTITLE0=Twenty four Hours From Tulsa
TTITLE1=I Must Be Seeing Things
TTITLE2=The Man Who Shot Liberty Valance
TTITLE3=I'm Gonna Be Strong
TTITLE4=Something's Got A Hold Of My Heart
TTITLE5=It Hurts To Be In Love
TTITLE6=Princess In Rags
TTITLE7=Just One Smile
TTITLE8=Only Love Can Break A Heart
TTITLE9=Last Chance To Turn Around
TTITLE10=Mecca
TTITLE11=Looking Through The Eyes Of Love
EXTD=
EXTT0=
EXTT1=
EXTT2=
EXTT3=
EXTT4=
EXTT5=
EXTT6=
EXTT7=
EXTT8=
EXTT9=
EXTT10=
EXTT11=
PLAYORDER=
